# xmcd CD database file
# Copyright (C) 1996 Ti Kan
#
# Track frame offsets:
# 	150
# 	11647
# 	27910
# 	44270
# 	55995
# 	72615
# 	86375
# 	103785
# 	123712
# 	137152
#
# Disc length: 2069 seconds
#
# Revision: 1
# Processed by: cddbd v1.4b41PL1 Copyright (c) Steve Scherf et al.
# Submitted via: DiscPlay 3.4.1
#
DISCID=8d08130a
DTITLE=Larry Stewart - Why Can't You
DYEAR=1900
DGENRE=
TTITLE0=They Ain't Made Enough Road
TTITLE1=Always A Woman
TTITLE2=That's What One Night Can Do
TTITLE3=There Goes The Neighborhood
TTITLE4=I've Got My Hands Full
TTITLE5=Shake, Rattle And Rollin' In The Country
TTITLE6=Why Can't You
TTITLE7=This Heart
TTITLE8=I'll Know When I Get There
TTITLE9=As Time Goes
EXTD=
EXTT0=
EXTT1=
EXTT2=
EXTT3=
EXTT4=
EXTT5=
EXTT6=
EXTT7=
EXTT8=
EXTT9=
PLAYORDER=
